<svg xmlns="http://www.w3.org/2000/svg" xmlns:xlink="http://www.w3.org/1999/xlink" x="0px" y="0px" width="48px" height="48px" viewBox="0 0 48 48"><g stroke-width="1" transform="translate(0.5, 0.5)"><path d="M37,30l4.365-2.5a3.054,3.054,0,0,1,4.157,1.119l.036.062a3.135,3.135,0,0,1-.7,4l-8.117,6.7a3.966,3.966,0,0,1-1.675.817l-15.4,3.422a4,4,0,0,1-3.086-.577L7.008,36.672A4,4,0,0,0,4.789,36H2V24l7.1-.789a7.99,7.99,0,0,1,3.692.461l5.465,2.049a7.936,7.936,0,0,0,1.528.406l10.224,1.659A3.223,3.223,0,0,1,33,31h0a3.223,3.223,0,0,1-2.992,3.214L19,35" fill="none" stroke="#296647" stroke-linecap="square" stroke-miterlimit="10" stroke-width="1" stroke-linejoin="miter"></path><circle cx="29" cy="12" r="9" fill="none" stroke="#69b236" stroke-linecap="square" stroke-miterlimit="10" stroke-width="1" data-color="color-2" stroke-linejoin="miter"></circle><rect x="26.172" y="9.172" width="5.657" height="5.657" stroke-width="1" fill="none" stroke="#69b236" stroke-linecap="square" stroke-miterlimit="10" transform="translate(0.009 24.021) rotate(-45)" data-color="color-2" stroke-linejoin="miter"></rect></g></svg>