<svg xmlns="http://www.w3.org/2000/svg" xmlns:xlink="http://www.w3.org/1999/xlink" x="0px" y="0px" width="48px" height="48px" viewBox="0 0 48 48"><g stroke-width="1" transform="translate(0.5, 0.5)"><path d="M39.065,14.09c-4.894-3.937-10.4-1.1-15.065-1.1s-10.171-2.834-15.065,1.1C4.444,17.7,2.954,28.659,9.011,38.344,14.823,47.636,20.684,44.486,24,44.486s9.177,3.15,14.989-6.142C45.046,28.659,43.556,17.7,39.065,14.09Z" fill="none" stroke="#296647" stroke-linecap="square" stroke-miterlimit="10" stroke-width="1" stroke-linejoin="miter"></path>
<path data-color="color-2" data-stroke="none" d="M34,0h0V2a7,7,0,0,1-7,7h0V7A7,7,0,0,1,34,0Z" fill="#69b236"></path>
<path data-cap="butt" d="M24,13c0-4-2.833-8.75-7-10" fill="none" stroke="#296647" stroke-miterlimit="10" stroke-width="1" stroke-linecap="butt" stroke-linejoin="miter"></path></g></svg>