<svg width="55" height="42" viewBox="0 0 55 42" fill="none" xmlns="http://www.w3.org/2000/svg">
<g clip-path="url(#clip0_2064_55535)">
<path d="M57 18.5556H29.9583V-1H25.0417V18.5556H-2V23.4444H25.0417V43H29.9583V23.4444H57V18.5556Z" fill="#296647"/>
<path d="M22.5841 25.5503L-0.0546875 42.945C0.11423 42.9807 0.286398 42.9992 0.459104 43H3.3919L22.5841 28.2538V25.5503Z" fill="#296647"/>
<path d="M32.418 16.4497L55.0568 -0.945C54.8878 -0.980725 54.7157 -0.999155 54.543 -1H51.6102L32.418 13.7473V16.4497Z" fill="#296647"/>
<path d="M20.1324 16.1112L-1.24406 -0.312988C-1.48297 -0.0860286 -1.67313 0.186729 -1.80305 0.488809C-1.93298 0.790888 -1.99998 1.11602 -2 1.44457L-2 1.81123L16.6145 16.1112H20.1324Z" fill="#296647"/>
<path d="M34.8672 25.8887L56.2436 42.3129C56.4825 42.0859 56.6727 41.8132 56.8026 41.5111C56.9325 41.209 56.9995 40.8839 56.9996 40.5553V40.1887L38.3851 25.8887H34.8672Z" fill="#296647"/>
<path d="M48.1979 -2H47.8593L47.5904 -1.79429L33.4167 9.04682V-1V-2H32.4167H22.5833H21.5833V-1V9.04681L7.4096 -1.79429L7.14065 -2H6.80206H0.458333C-0.457051 -2 -1.33608 -1.63847 -1.98507 -0.993146C-2.63426 -0.347629 -3 0.529087 -3 1.44444V4.60511V5.09923L-2.60751 5.39942L10.0902 15.1111H-2H-3V16.1111V25.8889V26.8889H-2H10.0905L-2.60756 36.6018L-3 36.902V37.3961V40.5556C-3 41.4709 -2.63426 42.3476 -1.98507 42.9931H-1.98507C-1.33608 43.6385 -0.457049 44 0.458333 44H6.80206H7.14065L7.4096 43.7943L21.5833 32.9532V43V44H22.5833H32.4167H33.4167V43V32.9532L47.5904 43.7943L47.8593 44H48.1979H54.5417C55.4571 44 56.3361 43.6385 56.9851 42.9931C57.6343 42.3476 58 41.4709 58 40.5556V37.3961V36.902L57.6076 36.6018L44.9095 26.8889H57H58V25.8889V16.1111V15.1111H57H44.9098L57.6075 5.39942L58 5.09923V4.60511V1.44444C58 0.529087 57.6343 -0.347628 56.9851 -0.993145C56.3361 -1.63847 55.4571 -2 54.5417 -2H48.1979Z" stroke="#296647" stroke-width="2"/>
</g>
<defs>
<clipPath id="clip0_2064_55535">
<rect width="55" height="42" fill="white"/>
</clipPath>
</defs>
</svg>
