<svg xmlns="http://www.w3.org/2000/svg" xmlns:xlink="http://www.w3.org/1999/xlink" x="0px" y="0px" width="48px" height="48px" viewBox="0 0 48 48"><g stroke-width="1" transform="translate(0.5, 0.5)"><path d="M36,17c2.343,2.343-3.414,11.9-5.757,14.243a6,6,0,0,1-8.486-8.486C24.1,20.414,33.657,14.657,36,17Z" fill="none" stroke="#296647" stroke-linecap="square" stroke-miterlimit="10" stroke-width="1" stroke-linejoin="miter"></path>
<line x1="46" y1="39" x2="2" y2="39" fill="none" stroke="#69b236" stroke-linecap="square" stroke-miterlimit="10" stroke-width="1" data-color="color-2" stroke-linejoin="miter"></line>
<path d="M36.193,20.807l4.523-4.523A3.4,3.4,0,0,0,42.5,16.8a3.5,3.5,0,0,0,.636-6.936A3.5,3.5,0,0,0,36.2,10.5a3.4,3.4,0,0,0,.516,1.784l-4.524,4.524" fill="none" stroke="#296647" stroke-miterlimit="10" stroke-width="1" data-cap="butt" stroke-linecap="butt" stroke-linejoin="miter"></path>
<path d="M36.359,20.641A16.523,16.523,0,0,1,42,33" fill="none" stroke="#296647" stroke-miterlimit="10" stroke-width="1" data-cap="butt" stroke-linecap="butt" stroke-linejoin="miter"></path>
<path d="M6,33c0-9.389,8.059-17,18-17a18.871,18.871,0,0,1,6.833,1.268" fill="none" stroke="#296647" stroke-miterlimit="10" stroke-width="1" data-cap="butt" stroke-linecap="butt" stroke-linejoin="miter"></path></g></svg>