<svg xmlns="http://www.w3.org/2000/svg" xmlns:xlink="http://www.w3.org/1999/xlink" x="0px" y="0px" width="48px" height="48px" viewBox="0 0 48 48"><g stroke-width="1" transform="translate(0.5, 0.5)"><path data-color="color-2" fill="none" stroke="#69b236" stroke-width="1" stroke-linecap="square" stroke-miterlimit="10" d="M21,30h-9
	C6.47715,30,2,25.52285,2,20V8h0.00002C12.49342,8,21,16.50658,21,26.99998V30z" stroke-linejoin="miter"></path>
<path data-color="color-2" fill="none" stroke="#69b236" stroke-width="1" stroke-linecap="square" stroke-miterlimit="10" d="
	M13.99999,30C10.134,30,7,33.134,7,36.99999v0.00002C7,40.866,10.134,44,13.99999,44h0.00001C17.866,44,21,40.866,21,37.00001
	v-0.00032" stroke-linejoin="miter"></path>
<path data-color="color-2" fill="none" stroke="#69b236" stroke-width="1" stroke-linecap="square" stroke-miterlimit="10" d="M27,30h9
	c5.52285,0,10-4.47715,10-10V8h-0.00002C35.50658,8,27,16.50658,27,26.99998V30z" stroke-linejoin="miter"></path>
<path data-color="color-2" fill="none" stroke="#69b236" stroke-width="1" stroke-linecap="square" stroke-miterlimit="10" d="
	M34.00001,30C37.866,30,41,33.134,41,36.99999v0.00002C41,40.866,37.866,44,34.00001,44h-0.00002C30.134,44,27,40.866,27,37.00001
	v-0.00032" stroke-linejoin="miter"></path>
<path data-cap="butt" fill="none" stroke="#296647" stroke-width="1" stroke-miterlimit="10" d="M27,16.64556V43
	c0,1.65685-1.34314,3-3,3H24c-1.65685,0-3-1.34314-3-3V16.64556" stroke-linejoin="miter" stroke-linecap="butt"></path>
<path data-cap="butt" fill="none" stroke="#296647" stroke-width="1" stroke-miterlimit="10" d="M22.01752,10.53012
	C21.58333,6.75,20.56249,4.375,18,2" stroke-linejoin="miter" stroke-linecap="butt"></path>
<path data-cap="butt" fill="none" stroke="#296647" stroke-width="1" stroke-miterlimit="10" d="M25.98248,10.53012
	C26.41667,6.75,27.4375,4.375,30,2" stroke-linejoin="miter" stroke-linecap="butt"></path>
<circle fill="none" stroke="#296647" stroke-width="1" stroke-linecap="square" stroke-miterlimit="10" cx="24" cy="14" r="4" stroke-linejoin="miter"></circle></g></svg>